<svg width="80" height="88" xmlns="http://www.w3.org/2000/svg">

 <g>
  <title>background</title>
  <rect fill="none" id="canvas_background" height="90" width="82" y="-1" x="-1"/>
 </g>
 <g>
  <title>Layer 1</title>
  <path id="svg_1" d="m36.119,56.932l0,2.434l-3.004,1.732c-0.094,0.054 -0.15,0.152 -0.15,0.26l0,3.627c0,0.107 0.057,0.206 0.149,0.26l1.192,0.689c-0.976,0.533 -2.217,1.217 -2.322,1.303c-0.023,0.02 -0.045,0.043 -0.062,0.068c-0.018,0.026 -0.107,0.167 -0.146,0.395l0.005,0.314c0.006,0.029 0.04,0.188 0.141,0.338c0.021,0.033 0.05,0.061 0.082,0.082l0.333,0.192c0.024,0.012 0.051,0.021 0.078,0.024l0.48,0.062l0.245,-0.02l0.242,-0.062l2.75,-1.65l0.768,0.445c-0.974,0.533 -2.215,1.22 -2.356,1.334c-0.029,0.033 -0.174,0.207 -0.174,0.434l0.006,0.312c0.007,0.03 0.043,0.189 0.144,0.338c0.017,0.024 0.037,0.047 0.062,0.065l0.125,0.1c0.021,0.017 0.044,0.031 0.069,0.042l0.462,0.145l0.228,0.012l0.277,-0.021l0.448,-0.142l2.54,-1.559l0.76,0.433c-1.099,0.598 -2.236,1.223 -2.336,1.305c-0.021,0.018 -0.039,0.037 -0.054,0.059c-0.02,0.027 -0.116,0.172 -0.152,0.403l0,0.255c0,0.039 0.007,0.076 0.021,0.112c0,0 0.06,0.147 0.146,0.28c0.018,0.027 0.039,0.051 0.063,0.07l0.121,0.098c0.021,0.018 0.046,0.031 0.071,0.043l0.456,0.143l0.236,0.014l0.513,-0.072l2.748,-1.65l3.629,2.105c0.092,0.055 0.208,0.055 0.3,0.001l6.674,-3.843c0.094,-0.053 0.15,-0.152 0.15,-0.26l0,-1.728c0.054,0.022 0.135,0.052 0.233,0.079l0.488,0.055l0.301,-0.033c0,0 0.13,-0.025 0.294,-0.074c0,0 0.129,-0.054 0.247,-0.112l0.38,-0.212l0.85,19.721c0.005,0.102 0.06,0.193 0.146,0.245l0.219,0.13l0,0.46c0,0.106 0.057,0.205 0.148,0.259l1.479,0.863c0.047,0.027 0.099,0.041 0.151,0.041c0.052,0 0.104,-0.014 0.151,-0.041l1.482,-0.863c0.092,-0.053 0.148,-0.152 0.148,-0.259l0,-0.455l0.232,-0.132c0.091,-0.051 0.147,-0.145 0.152,-0.248l1.013,-23.281l17.495,-10.107l0.667,-0.413l0.332,-0.28l0.27,-0.316l0.195,-0.328l0.137,-0.368l0.048,-0.348l-0.001,-11.677l-0.034,-0.37l-0.113,-0.349l-0.166,-0.327l-0.217,-0.31l-5.395,-6.053l-3.979,-12.421l4.863,-2.805l0.388,-0.234l0.579,-0.479l0.226,-0.262l0.146,-0.252l0.074,-0.195c0.013,-0.034 0.02,-0.07 0.02,-0.106l0,-0.182c0,-0.027 -0.004,-0.055 -0.011,-0.082l-0.284,-0.993l-0.072,-0.156c-0.011,-0.023 -0.024,-0.045 -0.041,-0.065l-0.119,-0.148c-0.021,-0.026 -0.048,-0.048 -0.076,-0.066l-7.302,-3.65l-0.921,-0.544l-0.658,-0.61l-0.386,-0.601l0.021,-0.781l-0.156,-1.701l-0.261,-0.947c-0.01,-0.036 -0.025,-0.068 -0.047,-0.098l-1.023,-1.394c-0.024,-0.032 -0.055,-0.06 -0.089,-0.081l-1.844,-1.092c-0.022,-0.013 -0.046,-0.023 -0.07,-0.03l-2.643,-0.76l-3.334,-0.403l-3.883,-0.012l-4.338,0.357l-4.653,0.718l-4.773,1.056l-4.79,1.364l-1.105,0.368l-2.111,0.848l-0.952,0.467l-10.586,6.092c-0.102,0.059 -0.158,0.171 -0.148,0.285l-10.283,5.937c-0.074,0.043 -0.126,0.115 -0.144,0.199l-0.203,1.017l-0.018,0.695l-0.094,0.587l-0.136,0.587l-0.209,0.599l-0.262,0.608l-0.304,0.576l-0.348,0.56l-0.4,0.529l-0.415,0.476l-5.833,5.217c-0.013,0.011 -0.125,0.107 -0.217,0.229c-0.019,0.025 -0.115,0.158 -0.146,0.313l-0.059,0.27l0,5.833c0,0.027 0.003,0.053 0.011,0.079c0,0 0.026,0.098 0.052,0.168c0.011,0.034 0.055,0.154 0.173,0.27c0.01,0.01 0.1,0.097 0.229,0.178c0.302,0.176 0.698,0.383 0.927,0.408l6.062,3.5l0.794,18.369c0.005,0.104 0.062,0.197 0.152,0.248l0.236,0.134l0,0.455c0,0.106 0.057,0.206 0.148,0.259l1.477,0.859c0.094,0.055 0.208,0.055 0.302,0.001l1.484,-0.859c0.093,-0.054 0.149,-0.153 0.149,-0.26l0,-0.461l0.219,-0.132c0.086,-0.053 0.14,-0.144 0.145,-0.244l0.654,-15.043l22.905,13.216zm-23.327,-13.983c-0.092,0.051 -0.15,0.146 -0.155,0.25l-0.669,15.377l-0.226,0.136c-0.09,0.055 -0.145,0.151 -0.145,0.257l0,0.457l-1.185,0.686l-1.177,-0.686l0,-0.457c0,-0.107 -0.058,-0.208 -0.152,-0.262l-0.242,-0.137l-0.794,-18.368c-0.005,-0.102 -0.061,-0.195 -0.149,-0.247l-6.281,-3.626c-0.058,-0.033 -0.125,-0.047 -0.187,-0.038c-0.107,-0.03 -0.402,-0.174 -0.653,-0.32c-0.068,-0.042 -0.123,-0.095 -0.146,-0.126c-0.012,-0.034 -0.023,-0.072 -0.031,-0.099l-0.008,-5.72l0.051,-0.203c0.006,-0.03 0.029,-0.073 0.041,-0.088c0.043,-0.058 0.106,-0.116 0.132,-0.138l5.395,-4.799l0.478,-0.457l0.447,-0.512l0.43,-0.568l0.374,-0.602l0.324,-0.616l0.279,-0.649l0.226,-0.649l0.148,-0.639l0.102,-0.644l0.021,-0.582l-0.007,-0.11l0.17,-0.824l10.366,-5.984c0.102,-0.059 0.158,-0.171 0.148,-0.286l9.496,-5.496l1.789,-0.921l2.067,-0.83l1.079,-0.359l4.76,-1.356l4.737,-1.048l4.613,-0.712l4.291,-0.354l3.822,0.011l3.252,0.392l2.559,0.74l1.759,1.042l0.954,1.3l0.237,0.841l0.146,1.612l-0.025,0.839c-0.002,0.061 0.015,0.12 0.047,0.171l0.482,0.735l0.757,0.705l0.993,0.594l7.082,3.519l0.153,0.093l0.067,0.081l0.293,0.981l0,0.09l-0.291,0.444l-0.489,0.404l-5.425,3.137c-0.123,0.07 -0.18,0.217 -0.137,0.352l4.072,12.711c0.013,0.041 0.034,0.077 0.062,0.109l5.414,6.071l0.172,0.244l0.127,0.246l0.083,0.236l0.023,11.892l-0.027,0.238l-0.096,0.256l-0.143,0.24l-0.205,0.242l-0.263,0.222l-18.253,10.568c-0.089,0.052 -0.145,0.145 -0.149,0.247l-1.013,23.279l-0.239,0.135c-0.095,0.054 -0.152,0.154 -0.152,0.262l0,0.457l-1.183,0.689l-1.179,-0.689l0,-0.457c0,-0.105 -0.056,-0.203 -0.146,-0.258l-0.226,-0.135l-0.864,-20.046c-0.005,-0.104 -0.062,-0.198 -0.153,-0.249c-0.092,-0.051 -0.201,-0.051 -0.293,0l-0.79,0.442c-0.077,0.038 -0.172,0.077 -0.171,0.079c-0.095,0.026 -0.186,0.046 -0.184,0.047l-0.214,0.027l-0.353,-0.041c-0.09,-0.025 -0.162,-0.061 -0.196,-0.076c-0.105,-0.041 -0.309,-0.166 -0.312,-0.168c-0.092,-0.057 -0.209,-0.059 -0.303,-0.006c-0.095,0.053 -0.153,0.153 -0.153,0.262l0,2.047l-6.373,3.67l-3.634,-2.109c-0.094,-0.055 -0.212,-0.053 -0.308,0.004l-2.651,1.631l-0.105,0.053l-0.341,0.045l-0.146,-0.005l-0.276,-0.088l-0.048,-0.039c-0.021,-0.034 -0.037,-0.069 -0.049,-0.095l-0.003,-0.137c0.004,-0.021 0.014,-0.048 0.024,-0.069c0.295,-0.179 1.764,-0.981 2.682,-1.479c0.096,-0.052 0.156,-0.151 0.157,-0.261c0.001,-0.108 -0.057,-0.209 -0.151,-0.264l-1.383,-0.788c-0.095,-0.055 -0.211,-0.052 -0.306,0.005l-2.63,1.623l-0.152,0.053l-0.317,0.051l-0.288,-0.037l-0.184,-0.097c-0.019,-0.035 -0.027,-0.062 -0.026,-0.028l-0.025,-0.243c0.136,-0.093 1.734,-0.972 2.711,-1.505c0.095,-0.051 0.155,-0.15 0.156,-0.259c0.002,-0.108 -0.056,-0.209 -0.149,-0.263l-1.383,-0.805c-0.094,-0.055 -0.213,-0.053 -0.307,0.004l-2.658,1.632l-0.121,0.058l-0.283,0.051l-0.354,-0.049l-0.159,-0.091c-0.012,-0.026 -0.02,-0.048 -0.021,-0.024l-0.005,-0.194c0.004,-0.024 0.016,-0.052 0.026,-0.076c0.302,-0.182 1.755,-0.981 2.664,-1.478c0.096,-0.051 0.155,-0.15 0.156,-0.259c0.002,-0.108 -0.056,-0.21 -0.149,-0.264l-1.505,-0.87l0,-3.279l3.004,-1.733c0.094,-0.054 0.15,-0.152 0.15,-0.26l0,-2.779c0,-0.107 -0.057,-0.206 -0.149,-0.26l-23.482,-13.547c-0.091,-0.052 -0.202,-0.053 -0.295,-0.003z" fill="#000000"/>
  <path id="svg_2" d="m51.45835,65.42515l-0.145,-0.084c-0.002,-0.001 -0.003,-0.002 -0.004,-0.002l-5.724,-3.311c-0.001,0 -0.002,-0.001 -0.003,-0.002l-5.386,-3.093l-2.009,-1.177c-0.093,-0.055 -0.206,-0.055 -0.301,-0.002c-0.093,0.054 -0.15,0.153 -0.15,0.261l0,4.064c0,0.107 0.058,0.207 0.15,0.261c0.095,0.053 0.208,0.053 0.301,-0.002l2.01,-1.178c0.092,-0.054 0.148,-0.152 0.148,-0.259l0,-1.19l4.787,2.749l0,3.888c0,0.106 0.056,0.205 0.147,0.258l1.092,0.645c0.093,0.055 0.208,0.055 0.303,0.001l2.033,-1.177c0.093,-0.054 0.149,-0.152 0.149,-0.26l0,-1.193l1.7,0.977l-5.104,2.941c-0.094,0.053 -0.15,0.152 -0.15,0.26l0,0.644c0,0.106 0.057,0.206 0.149,0.26c0.047,0.026 0.099,0.04 0.15,0.04s0.104,-0.014 0.149,-0.04c2.274,-1.31 5.742,-3.288 6.111,-3.452c0.028,-0.007 0.057,-0.019 0.083,-0.035c0.088,-0.055 0.142,-0.15 0.142,-0.255l0,-3.108c0.01,-0.029 0.016,-0.061 0.016,-0.094s-0.006,-0.064 -0.016,-0.094l0,-1.818c0.19,0.11 0.373,0.213 0.445,0.241c0,0 0.118,0.044 0.303,0.079l0.165,0.011l0.654,-0.104c0,0 0.127,-0.053 0.284,-0.135c0,0 0.139,-0.089 0.253,-0.188l5.416,-4.797l0.486,-0.457l0.452,-0.521l0.777,-1.164l0.324,-0.627l0.271,-0.635l0.223,-0.638l0.183,-0.662l0.123,-1.21l10.311,-5.963c0.065,0.064 0.158,0.096 0.246,0.083c0.024,-0.003 0.149,-0.021 0.284,-0.085l4.898,-2.839c0.093,-0.054 0.149,-0.153 0.149,-0.26c0,-0.107 -0.058,-0.206 -0.15,-0.259l-0.218,-0.126l0.152,-0.099l0.457,-0.466l0.145,-0.219c0.016,-0.023 0.027,-0.048 0.036,-0.074l0.129,-0.493c0.006,-0.03 0.008,-0.061 0.004,-0.092l-0.076,-0.501c-0.005,-0.027 -0.015,-0.054 -0.027,-0.079l-0.15,-0.278l-4.184,-4.718c-0.095,-0.105 -0.251,-0.132 -0.373,-0.061c-0.123,0.071 -0.18,0.218 -0.136,0.353c0.529,1.635 1.328,4.105 1.377,4.272c0.001,0.006 0.003,0.013 0.005,0.02l0.488,1.609l-1.196,0.697l-0.566,-0.071l-0.427,-1.62c-0.025,-0.163 -0.049,-0.279 -0.088,-0.363l-4.841,-19.288c-0.03,-0.119 -0.13,-0.208 -0.252,-0.224l-46.677,-5.896c-0.137,-0.018 -0.278,0.067 -0.323,0.204s0.013,0.285 0.138,0.355l0.729,0.411c1.145,0.663 2.863,1.658 3.72,2.151c-1.127,-0.387 -2.1,-0.718 -2.188,-0.735c-0.001,0 -0.151,0 -0.319,0.034c-0.185,0.049 -0.51,0.14 -0.645,0.209c-0.023,0.015 -0.145,0.095 -0.246,0.23c-0.01,0.013 -0.1,0.133 -0.161,0.293l-0.065,0.193l-0.606,6.49c-1.651,0.958 -1.713,1.03 -1.751,1.073c-0.018,0.021 -0.016,0.049 -0.026,0.073c-0.009,0.017 -0.031,0.024 -0.036,0.043c-0.005,0.017 0.005,0.031 0.002,0.047c-0.001,0.012 -0.012,0.021 -0.012,0.033l0,0.17c-0.003,0.017 0.007,0.03 0.007,0.046c-0.001,0.005 -0.001,0.01 -0.002,0.015c-0.001,0.004 -0.001,0.009 -0.001,0.014c-0.002,0.024 -0.004,0.051 -0.004,0.06l0.003,0c0.002,0.049 0.011,0.097 0.026,0.13c0.033,0.069 0.092,0.114 0.158,0.141c0.005,0.003 0.008,0.009 0.013,0.012c31.472,18.177 31.515,18.197 31.528,18.204c0.025,0.012 0.052,0.021 0.079,0.025l0.149,0.024c0.027,0.005 0.056,0.005 0.084,0.002c0.045,-0.005 0.156,-0.023 0.258,-0.074c2.097,-1.208 2.165,-1.275 2.198,-1.308c0.049,-0.048 0.085,-0.143 0.094,-0.219c0.046,-0.036 0.082,-0.086 0.102,-0.144l1.854,-5.64l0.054,-0.333l-0.004,-0.209l-0.159,-0.644c-0.011,-0.032 -0.027,-0.062 -0.048,-0.088l-0.07,-0.083c-0.01,-0.016 -0.095,-0.163 -0.241,-0.3l-1.803,-1.493l17.982,10.388l0.03,0.018l-10.095,5.817c-0.077,0.045 -0.131,0.121 -0.146,0.208l-0.096,0.547l-50.303,-29.039c-0.076,-0.044 -0.164,-0.052 -0.245,-0.025s-0.146,0.087 -0.181,0.166l-3.033,7.046c-0.017,0.038 -0.024,0.078 -0.024,0.119l0,0.59l-5.402,3.117c-0.094,0.054 -0.15,0.152 -0.15,0.26l0,0.805l-0.41,0.23c-0.064,0.036 -0.113,0.095 -0.137,0.166l-0.359,1.068c-0.046,0.135 0.011,0.284 0.134,0.355l49.675,28.683c-0.004,0.842 -0.014,1.909 -0.033,2.493zm-11.711,-4.695l-1.41,0.826l0,-3.018l1.41,0.826l0,1.366zm8.512,4.912l-1.732,1.002l-0.794,-0.467l0,-3.365l2.525,1.466l0,1.364l0.001,0zm14.331,-16.557l10.425,-6.007c0.094,-0.053 0.15,-0.152 0.15,-0.26s-0.058,-0.207 -0.15,-0.26l-21.558,-12.455c-0.134,-0.077 -0.307,-0.04 -0.396,0.088c-0.089,0.128 -0.065,0.303 0.055,0.402l4.542,3.759c0.057,0.053 0.104,0.125 0.143,0.186l0.064,0.081l0.117,0.561l-1.836,5.695c-0.059,0.025 -0.114,0.063 -0.149,0.12c-0.048,0.077 -0.062,0.148 -0.064,0.215c-0.312,0.189 -1.053,0.62 -1.672,0.967c-0.051,-0.038 -0.111,-0.064 -0.178,-0.064c-0.013,0 -0.073,0.006 -0.086,0.008l-0.021,0.003c-1.595,-0.902 -25.805,-14.871 -30.645,-17.663l1.332,-0.591l30.382,17.534c0.047,0.027 0.099,0.04 0.15,0.04c0.051,0 0.102,-0.013 0.147,-0.039l0.193,-0.109c0.094,-0.053 0.152,-0.152 0.152,-0.26c0.001,-0.108 -0.057,-0.208 -0.149,-0.261l-30.685,-17.732c-0.094,-0.054 -0.206,-0.053 -0.3,0l-0.072,0.041c0.024,-0.043 0.038,-0.092 0.039,-0.144c0.001,-0.089 -0.038,-0.173 -0.105,-0.23l0.561,-6.125l0.057,-0.221c0.03,-0.078 0.079,-0.144 0.079,-0.144c0.036,-0.049 0.068,-0.074 0.063,-0.071c0.102,-0.046 0.486,-0.146 0.485,-0.147c0.053,-0.011 0.105,-0.015 0.141,-0.017c0.384,0.127 3.152,1.086 5.012,1.731c0.148,0.053 0.307,-0.016 0.371,-0.159c0.064,-0.141 0.012,-0.307 -0.122,-0.384l-2.221,-1.281c-0.103,-0.055 -2.064,-1.19 -3.651,-2.109l39.018,4.917l5.957,0.762l4.802,19.134c0.007,0.026 0.017,0.051 0.029,0.074c0.02,0.068 0.038,0.194 0.044,0.223l0.481,1.842c0.031,0.119 0.132,0.208 0.254,0.223l0.873,0.109c0.069,0.009 0.135,-0.006 0.192,-0.041l1.477,-0.861c0.119,-0.068 0.177,-0.209 0.139,-0.342l-0.557,-1.852l-0.003,0.001c-0.049,-0.176 -0.233,-0.755 -0.941,-2.939l3.04,3.411l0.141,0.168l0.101,0.193l0.055,0.359l-0.093,0.347l-0.09,0.143l-0.351,0.363l-0.529,0.321c-0.092,0.055 -0.148,0.153 -0.147,0.26c0,0.106 0.058,0.205 0.15,0.258l0.206,0.119l-4.332,2.512c-0.024,-0.032 -0.055,-0.06 -0.09,-0.08c-0.094,-0.054 -0.207,-0.054 -0.301,0l-10.161,5.877l0.036,-0.199zm-57.199,-15.744c-0.053,-0.031 -0.113,-0.045 -0.172,-0.04l0,-0.325l5.064,-2.919c0.016,0.013 0.033,0.025 0.052,0.036c0.033,0.019 0.07,0.021 0.107,0.026l-0.62,0.322l-1.652,0.936c-0.028,0.016 -0.053,0.036 -0.074,0.059l-0.119,0.131c-0.018,0.02 -0.033,0.042 -0.045,0.065l-0.219,0.427c-0.074,0.143 -0.021,0.318 0.119,0.398l0.385,0.218c0.093,0.052 0.205,0.051 0.298,-0.001l3.25,-1.881c0.038,-0.022 0.07,-0.051 0.095,-0.085l0.305,0.177l-2.49,1.364c-0.027,0.015 -0.053,0.035 -0.074,0.058l-0.123,0.132c-0.022,0.024 -0.04,0.052 -0.054,0.082l-0.191,0.427c-0.064,0.143 -0.008,0.31 0.129,0.385l0.393,0.216c0.092,0.051 0.203,0.05 0.295,-0.003l0.37,-0.214l-0.112,0.22c-0.071,0.141 -0.021,0.313 0.114,0.394l0.387,0.23c0.093,0.056 0.209,0.057 0.304,0.002l3.252,-1.88c0.04,-0.023 0.073,-0.054 0.098,-0.09l0.318,0.184l-2.482,1.375c-0.023,0.013 -0.045,0.03 -0.064,0.049l-0.121,0.122c-0.021,0.021 -0.039,0.046 -0.053,0.072l-0.223,0.426c-0.074,0.142 -0.024,0.317 0.114,0.398l0.393,0.229c0.093,0.054 0.207,0.055 0.302,0.001l0.221,-0.128l-0.034,0.067c-0.074,0.144 -0.021,0.319 0.119,0.398l0.393,0.222c0.093,0.052 0.205,0.051 0.298,-0.001l0.195,-0.113l-0.034,0.065c-0.074,0.143 -0.021,0.319 0.118,0.399l0.385,0.22c0.092,0.052 0.205,0.053 0.299,-0.001l3.256,-1.879c0.038,-0.022 0.069,-0.051 0.094,-0.085l0.246,0.141l-2.485,1.376c-0.024,0.013 -0.046,0.03 -0.065,0.049l-0.121,0.122c-0.021,0.022 -0.04,0.047 -0.054,0.075l-0.217,0.424c-0.073,0.142 -0.022,0.315 0.115,0.396l0.393,0.229c0.093,0.054 0.208,0.055 0.301,0.001l0.399,-0.229l-0.115,0.22c-0.074,0.141 -0.024,0.316 0.112,0.397l0.387,0.229c0.095,0.056 0.209,0.056 0.304,0.002l3.252,-1.881c0.037,-0.022 0.068,-0.05 0.093,-0.083l0.392,0.224l-2.481,1.363c-0.031,0.018 -0.059,0.041 -0.082,0.068l-0.15,0.189l-0.225,0.423c-0.077,0.144 -0.024,0.322 0.117,0.402l0.391,0.22c0.092,0.052 0.204,0.051 0.298,-0.001l0.197,-0.114l-0.035,0.068c-0.073,0.144 -0.02,0.319 0.121,0.398l0.395,0.221c0.092,0.051 0.204,0.05 0.296,-0.001l0.224,-0.128l-0.035,0.067c-0.073,0.141 -0.025,0.314 0.11,0.396l0.385,0.232c0.094,0.056 0.21,0.057 0.306,0.003l3.252,-1.882c0.038,-0.022 0.069,-0.051 0.094,-0.085l0.246,0.141l-2.48,1.365c-0.026,0.015 -0.05,0.034 -0.07,0.056l-0.125,0.134c-0.02,0.02 -0.035,0.043 -0.048,0.067l-0.219,0.426c-0.074,0.145 -0.021,0.321 0.121,0.4l0.393,0.217c0.094,0.051 0.204,0.05 0.296,-0.003l0.37,-0.214l-0.112,0.22c-0.073,0.144 -0.02,0.319 0.121,0.398l0.387,0.217c0.09,0.051 0.204,0.05 0.296,-0.001l3.277,-1.88c0.035,-0.021 0.065,-0.047 0.089,-0.078l0.384,0.221l-2.489,1.373c-0.036,0.02 -0.068,0.048 -0.094,0.082l-0.345,0.583c-0.076,0.142 -0.026,0.318 0.111,0.4l0.393,0.232c0.095,0.055 0.211,0.056 0.304,0.001l0.187,-0.108l-0.025,0.051c-0.073,0.143 -0.021,0.317 0.116,0.397l0.393,0.227c0.094,0.054 0.207,0.054 0.301,0l0.22,-0.127l-0.04,0.087c-0.064,0.142 -0.009,0.31 0.127,0.386l0.387,0.217c0.09,0.051 0.203,0.051 0.297,-0.002l3.252,-1.881c0.035,-0.021 0.065,-0.048 0.09,-0.08l0.246,0.142l-2.473,1.369c-0.024,0.014 -0.048,0.032 -0.067,0.053l-0.131,0.136c-0.02,0.021 -0.037,0.043 -0.05,0.069l-0.215,0.41c-0.074,0.142 -0.024,0.316 0.113,0.397l0.395,0.232c0.093,0.055 0.208,0.056 0.303,0.001l0.365,-0.211l-0.11,0.212c-0.074,0.143 -0.021,0.318 0.118,0.398l0.387,0.221c0.092,0.052 0.205,0.053 0.299,-0.001l3.256,-1.88c0.038,-0.022 0.069,-0.051 0.094,-0.085l0.394,0.226l-2.482,1.375c-0.023,0.014 -0.046,0.03 -0.064,0.049l-0.121,0.121c-0.021,0.021 -0.04,0.046 -0.054,0.073l-0.223,0.426c-0.074,0.142 -0.024,0.317 0.113,0.398l0.391,0.229c0.093,0.054 0.209,0.055 0.302,0.001l0.227,-0.129l-0.038,0.074c-0.073,0.145 -0.019,0.32 0.122,0.398l0.391,0.217c0.092,0.052 0.204,0.05 0.296,-0.003l0.199,-0.116l-0.037,0.072c-0.073,0.144 -0.02,0.319 0.12,0.398l0.387,0.217c0.093,0.053 0.206,0.051 0.297,0l3.275,-1.881c0.036,-0.021 0.066,-0.048 0.091,-0.08l0.233,0.137l-2.486,1.375c-0.022,0.012 -0.044,0.027 -0.062,0.047l-0.127,0.123c-0.023,0.023 -0.043,0.051 -0.058,0.08l-0.213,0.422c-0.072,0.143 -0.02,0.316 0.12,0.396l0.412,0.232c0.092,0.053 0.204,0.052 0.298,-0.001l0.366,-0.212l-0.104,0.197c-0.074,0.141 -0.025,0.316 0.112,0.397l0.393,0.233c0.093,0.057 0.209,0.057 0.304,0.002l3.246,-1.881c0.039,-0.022 0.071,-0.053 0.096,-0.087l0.316,0.181l-2.479,1.375c-0.026,0.016 -0.05,0.033 -0.071,0.057l-0.123,0.131c-0.018,0.02 -0.032,0.041 -0.045,0.063l-0.221,0.413c-0.076,0.143 -0.026,0.318 0.112,0.4l0.391,0.23c0.094,0.055 0.209,0.056 0.303,0.001l0.217,-0.126l-0.037,0.082c-0.064,0.143 -0.009,0.311 0.129,0.387l0.395,0.218c0.092,0.052 0.204,0.05 0.294,-0.003l0.194,-0.111l-0.034,0.066c-0.074,0.144 -0.021,0.32 0.119,0.398l0.385,0.217c0.092,0.053 0.205,0.052 0.297,-0.001l3.258,-1.879c0.038,-0.022 0.07,-0.051 0.095,-0.085l0.245,0.143l-2.535,1.416l-0.131,0.121c-0.025,0.023 -0.048,0.053 -0.063,0.084l-0.215,0.424c-0.071,0.142 -0.021,0.314 0.116,0.395l0.393,0.229c0.093,0.054 0.207,0.056 0.302,0.001l0.365,-0.211l-0.107,0.201c-0.074,0.143 -0.024,0.317 0.113,0.398l0.387,0.229c0.093,0.056 0.209,0.056 0.302,0.002l3.277,-1.879c0.038,-0.021 0.069,-0.051 0.094,-0.085l0.462,0.267l-2.475,1.372c-0.026,0.015 -0.052,0.034 -0.072,0.058l-0.123,0.134c-0.018,0.02 -0.033,0.041 -0.045,0.064l-0.215,0.412c-0.074,0.141 -0.024,0.314 0.111,0.396l0.385,0.23c0.094,0.056 0.209,0.058 0.305,0.003l0.191,-0.111l-0.027,0.052c-0.074,0.143 -0.024,0.317 0.113,0.398l0.389,0.23c0.093,0.055 0.208,0.055 0.303,0.001l0.224,-0.13l-0.035,0.068c-0.074,0.143 -0.021,0.319 0.119,0.398l0.393,0.223c0.093,0.051 0.205,0.051 0.298,-0.002l3.248,-1.88c0.037,-0.021 0.068,-0.05 0.092,-0.082l0.244,0.141l-2.477,1.372c-0.027,0.016 -0.053,0.035 -0.074,0.06l-0.162,0.192l-0.223,0.413c-0.077,0.143 -0.027,0.319 0.112,0.401l0.393,0.229c0.093,0.054 0.207,0.056 0.302,0.001l0.37,-0.215l-0.112,0.221c-0.073,0.144 -0.02,0.32 0.122,0.398l0.391,0.217c0.092,0.052 0.204,0.051 0.296,-0.003l3.248,-1.879c0.038,-0.022 0.07,-0.052 0.095,-0.087l0.366,0.207l-2.481,1.371c-0.025,0.015 -0.048,0.032 -0.068,0.053l-0.119,0.123c-0.021,0.021 -0.038,0.046 -0.051,0.072l-0.217,0.423c-0.072,0.141 -0.023,0.313 0.112,0.394l0.387,0.232c0.094,0.055 0.209,0.057 0.305,0.002l0.19,-0.11l-0.026,0.052c-0.075,0.145 -0.022,0.322 0.119,0.4l0.393,0.219c0.092,0.051 0.204,0.051 0.296,-0.002l0.231,-0.133l-0.045,0.089c-0.072,0.143 -0.021,0.317 0.119,0.396l0.385,0.22c0.046,0.025 0.097,0.039 0.148,0.039s0.104,-0.014 0.15,-0.04l3.252,-1.884c0.058,-0.033 0.101,-0.084 0.126,-0.141c0.378,0.219 0.755,0.436 1.118,0.646c-0.044,0.093 -0.065,0.215 -0.065,0.363c0,0.055 0.015,0.107 0.042,0.153l-3.614,3.216l-1.123,-0.656c-0.093,-0.055 -0.208,-0.055 -0.301,-0.002c-0.093,0.055 -0.15,0.153 -0.15,0.261l0,0.447l-0.014,0.009l-44.958,-25.942l0,-0.192c0,-0.107 -0.057,-0.205 -0.149,-0.259zm44.82,22.605l1.598,-0.902l1.165,-0.604l0.02,0.012c0.001,0.003 0.002,0.007 0.002,0.011l-2.918,1.678l0.133,-0.195zm-1.1,-0.369l0.063,-0.124l1.662,-0.968l1.158,-0.611l0.018,0.011c0.001,0.005 0.002,0.009 0.003,0.014l-2.904,1.678zm2.026,1.012l1.662,-0.973l1.165,-0.604l0.007,0.005c0.001,0.002 0.001,0.006 0.002,0.009l-2.892,1.675l0.056,-0.112zm-3.542,-2.037l1.663,-0.977l1.168,-0.605l0.003,0.001c0.001,0.007 0.002,0.013 0.003,0.019l-2.894,1.674l0.057,-0.112zm-1.134,-0.5l0.136,-0.189l1.594,-0.906l1.158,-0.609l0.014,0.008c0.001,0.006 0.002,0.01 0.003,0.016l-2.905,1.68zm-2.377,-1.534l1.659,-0.968l1.164,-0.613l0.004,0.002c0.001,0.008 0.002,0.017 0.004,0.024l-2.896,1.676l0.065,-0.121zm-1.03,-0.451l0.058,-0.11l1.661,-0.978l1.154,-0.608l0.017,0.01c0.001,0.005 0.002,0.01 0.003,0.015l-2.893,1.671zm2.071,0.942l1.612,-0.9l1.159,-0.6l0.014,0.008c0,0.002 0.001,0.004 0.001,0.006l-2.9,1.679l0.114,-0.193zm-3.654,-2.092l2.768,-1.521l0.031,0.019c0,0.002 0,0.004 0.001,0.007l-2.931,1.681l0.131,-0.186zm-1.197,-0.432l0.067,-0.133l1.668,-0.959l1.157,-0.615l0.009,0.005c0.001,0.007 0.002,0.013 0.003,0.021l-2.904,1.681zm-2.378,-1.541l1.684,-0.973l1.144,-0.604l0.03,0.019c0.001,0.003 0.001,0.007 0.002,0.012l-2.913,1.676l-0.004,-0.002l0.057,-0.128zm-1.032,-0.441l0.06,-0.111l1.664,-0.979l1.156,-0.611l0.009,0.006c0.001,0.006 0.002,0.013 0.003,0.02l-2.892,1.675zm2.024,1.014l1.663,-0.974l1.164,-0.604l0.007,0.004c0.001,0.004 0.002,0.008 0.003,0.012l-2.892,1.668l0.055,-0.106zm-3.43,-2.085l1.6,-0.903l1.157,-0.61l0.014,0.008c0.001,0.006 0.002,0.012 0.003,0.017l-2.907,1.685l-0.001,-0.001l0.134,-0.196zm-1.208,-0.42l-0.014,-0.008l0.062,-0.122l1.693,-0.984l1.144,-0.602l0.029,0.017c0.001,0.003 0.001,0.007 0.002,0.009l-2.916,1.69zm-2.375,-1.545l1.665,-0.976l1.159,-0.601l0.013,0.007c0,0.002 0,0.005 0.001,0.007l-2.895,1.676l0.057,-0.113zm-1.056,-0.442l0.063,-0.123l1.664,-0.968l1.164,-0.615l0.029,0.017c0,0.003 0.001,0.007 0.002,0.01l-2.922,1.679zm2.029,1.01l1.662,-0.975l1.169,-0.605l0.016,0.009c0.001,0.004 0.002,0.009 0.003,0.014l-2.907,1.669l0.057,-0.112zm-3.566,-2.062l1.662,-0.975l1.168,-0.603l0.004,0.002c0.001,0.005 0.002,0.01 0.003,0.016l-2.896,1.671l0.059,-0.111zm-1.134,-0.497l0.061,-0.115l1.667,-0.979l1.156,-0.609l0.017,0.009c0,0.004 0.001,0.008 0.002,0.013l-2.903,1.681zm-2.388,-1.531l1.669,-0.97l1.162,-0.611l0.006,0.003c0.001,0.006 0.003,0.013 0.004,0.02l-2.902,1.678l0.061,-0.12zm-1.032,-0.447l0.12,-0.194l2.752,-1.513l0.025,0.014c0,0.003 0.001,0.006 0.001,0.009l-2.898,1.684zm2.012,1.001l2.827,-1.573l0.028,0.017l-2.914,1.686l0.059,-0.13zm-3.571,-2.054l1.662,-0.975l1.167,-0.604l0.03,0.018l-2.916,1.672l0.057,-0.111zm-1.125,-0.504l0.058,-0.112l1.663,-0.976l1.166,-0.603l0.005,0.003c0.001,0.004 0.001,0.008 0.002,0.013l-2.894,1.675zm-2.395,-1.521l2.838,-1.581l0.023,0.014c0,0.002 0.001,0.004 0.001,0.007l-2.923,1.68l0.061,-0.12zm-1.028,-0.455l0.128,-0.189l1.594,-0.9l1.163,-0.603l0.008,0.004c0.001,0.004 0.001,0.008 0.002,0.013l-2.895,1.675zm2.025,1.026l1.663,-0.974l1.159,-0.611l0.013,0.008c0.001,0.004 0.002,0.009 0.003,0.014l-2.896,1.676l0.058,-0.113zm-3.513,-2.142l2.754,-1.512l0.029,0.017c0,0.003 0.001,0.006 0.002,0.01l-2.9,1.677l0.115,-0.192zm-1.211,-0.42l0.064,-0.126l1.665,-0.97l1.164,-0.613l0.022,0.013c0.001,0.006 0.002,0.012 0.003,0.018l-2.918,1.678zm-2.36,-1.539l1.661,-0.975l1.16,-0.6l0.016,0.009c0,0.001 0,0.002 0.001,0.004l-2.897,1.678l0.059,-0.116zm-1.057,-0.44l0.064,-0.124l1.66,-0.97l1.164,-0.612l0.008,0.004c0.001,0.007 0.002,0.014 0.003,0.021l-2.899,1.681zm2.092,0.939l1.599,-0.904l1.168,-0.604l0.003,0.002c0.001,0.005 0.002,0.011 0.003,0.016l-2.901,1.674l0.128,-0.184zm-3.56,-1.95l1.665,-0.978l1.16,-0.601l0.012,0.006c0.001,0.006 0.002,0.011 0.003,0.017l-2.902,1.678l0.062,-0.122zm-1.143,-0.499l-0.002,-0.001l0.058,-0.129l1.688,-0.969l1.143,-0.605l0.027,0.016c0,0.001 0,0.002 0,0.002l-2.914,1.686zm1.377,-2.576l0.007,0.004c0.001,0.003 0.002,0.007 0.002,0.011l-2.889,1.672l0.057,-0.11l1.661,-0.973l1.162,-0.604zm-8.944,3.489l0.245,-0.726l0.462,-0.26c0.094,-0.053 0.152,-0.153 0.152,-0.261l0,-0.807l5.403,-3.117c0.093,-0.054 0.149,-0.152 0.149,-0.26l0,-0.702l2.876,-6.68l48.9,28.222l1.332,0.775l-0.109,1.094l-0.168,0.6l-0.21,0.602l-0.254,0.596l-0.301,0.584l-0.729,1.094l-0.412,0.475l-5.866,5.219c-0.072,0.062 -0.16,0.119 -0.157,0.119c-0.091,0.047 -0.178,0.084 -0.178,0.087l-0.438,0.073l-0.106,-0.006c-0.093,-0.019 -0.167,-0.045 -0.167,-0.045c-0.049,-0.021 -0.24,-0.129 -0.457,-0.256c0.003,-0.003 0.007,-0.002 0.009,-0.004l4.365,-3.885c0.072,-0.063 0.109,-0.158 0.1,-0.254c-0.011,-0.097 -0.065,-0.182 -0.149,-0.23l-0.145,-0.082c-0.049,-0.029 -0.104,-0.044 -0.162,-0.04l0,-0.005c0,-0.107 -0.057,-0.206 -0.149,-0.26c-32.537,-18.798 -41.734,-24.066 -44.374,-25.543l-0.359,-0.208c-0.009,-0.005 -0.019,-0.004 -0.027,-0.008c-0.604,-0.333 -0.674,-0.358 -0.701,-0.36c-0.021,-0.022 -0.044,-0.041 -0.07,-0.057c-0.094,-0.054 -0.208,-0.054 -0.3,0l-5.561,3.205c-0.094,0.053 -0.15,0.152 -0.15,0.26l0,0.979c0,0.107 0.057,0.206 0.148,0.259c0.06,0.035 0.127,0.045 0.194,0.038c0.024,0.061 0.068,0.113 0.127,0.146l45.24,26.114c0.047,0.026 0.099,0.04 0.15,0.04c0.053,0 0.105,-0.014 0.152,-0.041l0.312,-0.184c0.092,-0.055 0.147,-0.152 0.147,-0.259l0,-0.097l0.51,0.299c-0.067,0.057 -0.113,0.134 -0.113,0.223l0,1.918l-49.161,-28.384z" fill="#000000"/>
 </g>
</svg>